<svg width="110px" height="70px" viewBox="0 0 110 70" version="1.1" xmlns:xlink="http://www.w3.org/1999/xlink" xmlns="http://www.w3.org/2000/svg">
  <path id="ein" fill="#FFFFFF" d="M62.5188 63.4662C61.1404 63.4662 60.1692 62.8709 59.6053 61.6805C59.0414 60.49 58.7594 59.3308 58.7594 58.203C58.7594 54.9449 59.5426 51.5614 61.109 48.0526C62.6754 44.5439 64.2419 41.317 65.8083 38.3722C67.3747 35.4273 68.1579 33.1404 68.1579 31.5113C68.1579 30.7594 67.7193 30.3835 66.8421 30.3835C66.4662 30.3835 65.9023 30.5088 65.1504 30.7594L65.1504 30.0075L69.6617 24.7444L69.6617 24.5564C70.2882 23.9298 70.8521 23.3033 71.3534 22.6767C71.8546 22.0501 72.3559 21.4862 72.8571 20.985L74.5489 19.8571C75.9273 19.9825 77.2744 20.3271 78.5902 20.891C79.906 21.4549 80.7519 22.5514 81.1278 24.1805L80.9398 24.3684C81.0652 25.3709 80.6266 26.4361 79.6241 27.5639C78.6215 28.6917 77.7444 29.5689 76.9925 30.1955C76.2406 31.5739 75.3947 32.8584 74.4549 34.0489C73.515 35.2394 72.6692 36.5238 71.9173 37.9023L71.9173 39.782L71.1654 41.2857L70.7895 41.2857C70.4135 42.0376 70.0689 42.8521 69.7556 43.7293C69.4424 44.6065 69.2857 45.5464 69.2857 46.5489L70.2256 48.0526C70.6015 47.6767 71.3221 47.0815 72.3872 46.2669C73.4524 45.4524 74.4236 44.6065 75.3008 43.7293C76.1779 42.8521 76.6165 42.2256 76.6165 41.8496L78.6842 39.9699C79.3108 38.0902 80.6892 36.0539 82.8195 33.8609C84.9499 31.6679 86.7669 29.9449 88.2707 28.6917L88.8346 27.188C89.5865 26.812 90.3697 26.3734 91.1842 25.8722C91.9987 25.3709 92.8446 25.1203 93.7218 25.1203C94.7243 25.1203 95.6328 25.3709 96.4474 25.8722C97.2619 26.3734 98.1078 26.8747 98.985 27.3759C98.985 27.8772 99.0163 28.4724 99.0789 29.1616C99.1416 29.8509 99.1729 30.5088 99.1729 31.1353C99.1729 33.1404 98.609 35.0201 97.4812 36.7744C96.3534 38.5288 95.2256 40.3459 94.0977 42.2256C92.9699 44.1053 92.406 46.4236 92.406 49.1805C92.406 49.5564 92.4373 50.4023 92.5 51.718C92.5627 53.0338 92.7506 54.287 93.0639 55.4774C93.3772 56.6679 93.9098 57.2632 94.6617 57.2632L100.677 54.0677L101.053 54.0677C101.303 53.3158 101.773 52.6266 102.462 52C103.152 51.3734 103.935 51.0602 104.812 51.0602L105 51.2481C105 51.8747 104.467 52.8145 103.402 54.0677C102.337 55.3208 101.209 56.5113 100.019 57.6391C98.8283 58.7669 97.9825 59.5815 97.4812 60.0827C96.9799 60.208 96.416 60.302 95.7895 60.3647C95.1629 60.4273 94.5363 60.584 93.9098 60.8346L93.3459 59.8947C90.589 59.6441 88.302 58.6729 86.485 56.9812C84.6679 55.2895 83.7594 53.0652 83.7594 50.3083C83.7594 49.4311 83.9474 47.8333 84.3233 45.515C84.6992 43.1968 85.1692 40.9098 85.7331 38.6541C86.297 36.3985 86.7043 34.8321 86.9549 33.9549C85.4511 34.9574 84.01 36.4925 82.6316 38.5601C81.2531 40.6278 80 42.3509 78.8722 43.7293C77.619 44.2306 76.3346 45.515 75.0188 47.5827C73.703 49.6504 72.3559 51.906 70.9774 54.3496C69.599 56.7932 68.2206 58.9236 66.8421 60.7406C65.4637 62.5576 64.0226 63.4662 62.5188 63.4662L62.5188 63.4662ZM67.406 14.218C67.0301 14.218 66.0589 14.0614 64.4925 13.7481C62.9261 13.4348 62.1429 13.0276 62.1429 12.5263C62.1429 10.6466 63.114 9.26817 65.0564 8.39097C66.9987 7.51379 68.5965 6.63659 69.8496 5.7594L70.2256 5.7594C71.9799 4.38095 74.079 3.4411 76.5226 2.93985C78.9662 2.4386 81.2531 2.12532 83.3835 2L83.1955 2.18797C80.8145 2.93985 78.6842 4.28697 76.8045 6.22932C74.9248 8.17169 73.2018 9.98873 71.6353 11.6805C70.0689 13.3722 68.6591 14.218 67.406 14.218L67.406 14.218ZM43.1579 66.4737L40.1504 62.1504C40.0251 61.2732 39.8371 60.4273 39.5865 59.6128C39.3358 58.7982 39.2105 57.9524 39.2105 57.0752C39.2105 55.9474 39.2732 54.8195 39.3985 53.6917C39.5238 52.5639 39.6491 51.4361 39.7744 50.3083L41.0902 47.1128L40.9023 46.9248C41.5288 45.4211 42.1554 43.4787 42.782 41.0978C43.4085 38.7168 44.1917 36.3045 45.1316 33.8609C46.0714 31.4173 47.2306 29.3496 48.609 27.6579C49.9875 25.9662 51.6792 25.1203 53.6842 25.1203C55.0627 25.1203 56.6291 25.6216 58.3835 26.6241C60.1378 27.6266 61.015 28.9423 61.015 30.5714C61.015 31.198 60.5451 32.3258 59.6053 33.9549C58.6654 35.584 57.5689 37.3697 56.3158 39.312C55.0627 41.2544 53.8409 42.9461 52.6504 44.3872C51.4599 45.8283 50.614 46.6742 50.1128 46.9248C48.985 48.9298 47.4185 51.2481 45.4135 53.8797C43.4085 56.5113 42.406 58.9549 42.406 61.2105C42.406 62.0877 42.5627 62.9023 42.8759 63.6541C43.1892 64.406 43.3459 65.2206 43.3459 66.0977L43.1579 66.4737ZM15.1504 62.5263C14.0226 62.5263 12.6754 61.7744 11.109 60.2707C9.54261 58.7669 8.25814 57.6391 7.25564 56.8872C7.00501 55.2582 6.56642 53.7857 5.93985 52.4699C5.31328 51.1541 5 49.7444 5 48.2406C5 45.985 5.84586 43.3221 7.53759 40.2519C9.22932 37.1817 11.4223 34.1429 14.1165 31.1353C16.8108 28.1278 19.5677 25.6216 22.3872 23.6165C25.2068 21.6115 27.7444 20.609 30 20.609L30 20.2331C31.7544 20.609 33.4148 21.7368 34.9812 23.6165C36.5476 25.4962 37.3308 27.2506 37.3308 28.8797C37.3308 30.3835 36.4223 31.9185 34.6053 33.485C32.7882 35.0514 30.5952 36.4925 28.0263 37.8083C25.4574 39.1241 22.9511 40.1579 20.5075 40.9098C18.0639 41.6617 16.1529 42.0376 14.7744 42.0376L14.7744 42.4135C13.8972 43.792 13.0514 45.515 12.2368 47.5827C11.4223 49.6504 11.015 51.5614 11.015 53.3158C11.015 53.9424 11.203 54.6316 11.5789 55.3835C12.4561 56.01 13.584 56.292 14.9624 56.2293C16.3409 56.1667 17.4687 56.198 18.3459 56.3233L18.5338 56.5113L19.0977 55.5714C20.7268 55.4461 22.2932 55.0702 23.797 54.4436L23.797 53.3158L24.9248 53.3158L24.9248 52.7519L25.6767 52.9398C26.3033 52.6892 26.7732 52.4073 27.0865 52.094C27.3998 51.7807 27.807 51.4988 28.3083 51.2481L29.4361 51.812L29.4361 51.6241L32.8195 48.4286L33.0075 48.4286L33.5714 48.8045L33.5714 48.6166C35.2005 47.1128 36.9549 45.7343 38.8346 44.4812C40.7143 43.2281 42.0927 41.599 42.9699 39.594L45.0376 38.0902L45.4135 38.4662C45.4135 39.3434 45.1003 40.1579 44.4737 40.9098C43.8471 41.6617 43.0952 42.1629 42.218 42.4135C41.2155 44.7945 39.7431 46.7995 37.8008 48.4286C35.8584 50.0576 33.8847 51.7494 31.8797 53.5038L31.3158 53.5038L31.1278 54.4436C28.7469 56.0727 26.2719 57.8271 23.703 59.7068C21.1341 61.5865 18.2832 62.5263 15.1504 62.5263L15.1504 62.5263ZM18.7218 38.4662L19.0977 38.4662L19.0977 38.0902C19.9749 37.8396 21.51 37.0877 23.703 35.8346C25.896 34.5815 27.995 33.2343 30 31.7932C32.005 30.3521 33.0702 29.3183 33.1955 28.6917L33.3835 28.6917L33.1955 27.7519L33.3835 26.812C33.2581 26.812 33.0075 26.7807 32.6316 26.718C32.2556 26.6554 31.9424 26.6241 31.6917 26.6241C30.0627 27.7519 28.4336 28.8171 26.8045 29.8196C25.1754 30.8221 23.5464 31.8246 21.9173 32.8271L21.5414 32.8271L21.3534 34.3308C20.6015 34.8321 20.0376 35.4273 19.6617 36.1165C19.2857 36.8058 18.9724 37.589 18.7218 38.4662L18.7218 38.4662ZM47.2932 37.9023L46.1654 37.5263L45.9775 36.3985L47.8571 35.8346L48.0451 36.3985L47.2932 37.9023Z"/>
</svg>